<svg width="360" height="360" viewBox="0 0 360 360" fill="none" xmlns="http://www.w3.org/2000/svg">
    <defs>
        <linearGradient id="paint0_linear_120_211" x1="57.4494" y1="-5.71791" x2="256.68" y2="388.788" gradientUnits="userSpaceOnUse">
            <stop/>
            <stop offset="0.1229"/>
            <stop offset="0.3199"/>
            <stop offset="0.5663" stop-color="#1B95FF"/>
            <stop offset="0.8497"/>
            <stop offset="1"/>
        </linearGradient>
        <linearGradient id="paint1_linear_120_211" x1="-0.00829171" y1="180.009" x2="359.993" y2="180.009" gradientUnits="userSpaceOnUse">
            <stop/>
            <stop offset="1"/>
        </linearGradient>
        <linearGradient id="paint2_linear_120_211" x1="56.7596" y1="-7.58511" x2="258.527" y2="390.288" gradientUnits="userSpaceOnUse">
            <stop/>
            <stop offset="1"/>
        </linearGradient>
        <linearGradient id="paint3_linear_120_211" x1="35.0401" y1="200.649" x2="359.988" y2="200.649" gradientUnits="userSpaceOnUse">
            <stop/>
            <stop offset="1"/>
        </linearGradient>
    </defs>
    <path d="M360 180C360 279.411 279.411 360 180 360C80.5887 360 0 279.411 0 180C0 80.5887 80.5887 0 180 0C279.411 0 360 80.5887 360 180Z" fill="#FFC500"/>
<path d="M120.726 108.368L104.267 88.3555C102.712 86.4648 99.9135 86.1881 98.0154 87.7376C96.1173 89.287 95.8374 92.0745 97.3951 93.9654L113.851 113.978C115.409 115.869 118.207 116.146 120.103 114.597C122.004 113.047 122.281 110.259 120.726 108.368Z" fill="url(#paint0_linear_120_211)"/>
<path d="M177.65 245.793H104.862C103.473 245.791 102.256 245.244 101.343 244.341C100.434 243.431 99.8875 242.219 99.8855 240.838V95.8088C99.8876 94.4258 100.436 93.2157 101.343 92.3038C102.259 91.4005 103.473 90.8537 104.862 90.8516H177.65C199.142 90.8539 218.554 99.515 232.642 113.542C246.72 127.576 255.415 146.914 255.419 168.323C255.415 189.73 246.72 209.069 232.642 223.103C218.554 237.129 199.141 245.791 177.65 245.793V254.644C225.513 254.642 264.3 215.999 264.305 168.323C264.3 120.645 225.513 82.0022 177.65 82H104.862C97.2041 82.0023 91.0022 88.1807 91 95.8088V240.838C91.0042 248.464 97.2041 254.642 104.862 254.644H177.65V245.793Z" fill="url(#paint1_linear_120_211)"/>
<path d="M119.734 266.366L100.614 243.457C99.0481 241.577 96.2454 241.32 94.358 242.882C92.4707 244.445 92.2147 247.234 93.7831 249.114L112.901 272.023C114.47 273.903 117.27 274.16 119.157 272.598C121.045 271.036 121.301 268.244 119.734 266.366Z" fill="url(#paint2_linear_120_211)"/>
<path d="M196.35 268.148H123.557C122.169 268.146 120.952 267.6 120.039 266.696C119.129 265.784 118.583 264.574 118.581 263.193V118.164C118.583 116.781 119.132 115.569 120.039 114.659C120.954 113.756 122.169 113.209 123.557 113.207H196.35C217.839 113.209 237.252 121.87 251.337 135.898C265.418 149.931 274.11 169.27 274.114 190.677V190.679C274.11 212.086 265.418 231.424 251.337 245.458C237.252 259.485 217.839 268.147 196.35 268.148V277C244.209 276.998 282.996 238.355 283 190.679V190.677C282.996 143.001 244.209 104.358 196.35 104.356H123.557C115.9 104.358 109.697 110.536 109.695 118.164V263.193C109.7 270.82 115.9 276.996 123.557 277L196.35 277V268.148Z" fill="url(#paint3_linear_120_211)"/>
<path d="M177.435 256.41C176.421 254.132 177.452 251.466 179.74 250.455C182.027 249.445 184.704 250.473 185.718 252.751L193.371 269.942C194.385 272.22 193.353 274.886 191.066 275.897C188.779 276.907 186.102 275.879 185.088 273.601L177.435 256.41Z" fill="black"/>
<path fill-rule="evenodd" clip-rule="evenodd" d="M180.129 146.326C177.627 146.326 175.598 148.347 175.598 150.84V174.91H154.456C151.954 174.91 149.925 176.931 149.925 179.423C149.925 181.916 151.954 183.936 154.456 183.936H175.598V244.112C175.598 246.605 177.627 248.626 180.129 248.626C182.631 248.626 184.659 246.605 184.659 244.112V183.936H205.802C208.304 183.936 210.332 181.916 210.332 179.423C210.332 176.931 208.304 174.91 205.802 174.91H184.659V150.84C184.659 148.347 182.631 146.326 180.129 146.326ZM184.659 174.91H175.598V183.936H184.659V174.91Z" fill="black"/>
<path d="M184.659 174.91H175.598V183.936H184.659V174.91Z" fill="black"/>
</svg>
