<?xml version="1.0" encoding="utf-8"?>
<!-- Generator: Adobe Illustrator 16.0.0, SVG Export Plug-In . SVG Version: 6.00 Build 0)  -->
<!DOCTYPE svg PUBLIC "-//W3C//DTD SVG 1.1//EN" "http://www.w3.org/Graphics/SVG/1.1/DTD/svg11.dtd">
<svg version="1.1" id="Layer_1" xmlns="http://www.w3.org/2000/svg" xmlns:xlink="http://www.w3.org/1999/xlink" x="0px" y="0px"
	 width="495px" height="495px" viewBox="0 0 495 495" enable-background="new 0 0 495 495" xml:space="preserve">
<g>
	<path fill="#196858" d="M129.698,225.393c1.541-9.206,4.054-18.05,7.525-26.452c6.182-14.975,14.823-28.229,25.684-39.39
		c10.86-11.162,23.587-20.014,37.826-26.309c14.359-6.35,29.82-9.568,45.951-9.568c20.634,0,39.943,5.13,57.392,15.251
		c17.281,10.027,31.604,23.884,42.57,41.186c10.955,17.293,17.346,37.087,19.005,58.837c0.171,1.613,0.253,3.006,0.253,4.25v15.227
		h-202.64c1.394,12.268,4.962,23.492,10.656,33.487c7.581,13.32,17.767,23.474,31.14,31.05
		c13.271,7.526,28.708,11.341,45.892,11.341c16.245,0,31.15-3.501,44.301-10.407c13.144-6.899,23.22-16.246,30.81-28.574
		l6.426-10.438l0.346,0.221h140.648c1.704-11.329,2.594-22.925,2.594-34.729c0-127.821-103.619-231.44-231.441-231.44
		C125.257,18.934,27,109.322,14.54,225.393H129.698z"/>
	<path fill="#196858" d="M286.457,168.606c-11.919-6.775-25.233-10.211-39.569-10.211c-14.557,0-27.582,3.349-39.82,10.238
		c-12.207,6.876-22.37,16.382-30.204,28.253c-5.445,8.252-9.37,17.368-11.731,27.222h163.104
		c-2.36-9.854-6.285-18.971-11.729-27.224C308.666,185.004,298.554,175.49,286.457,168.606z"/>
	<path fill="#196858" d="M352.613,318.136c-10.66,15.405-24.506,27.671-41.239,36.486c-18.15,9.557-38.478,14.402-60.422,14.402
		c-23.733,0-45.161-5.437-63.686-16.16c-18.534-10.728-33.229-25.429-43.673-43.694c-8.763-15.321-13.883-32.354-15.301-50.746
		H13.35c4.244,124.092,106.16,223.391,231.285,223.391c104.244,0,192.381-68.922,221.352-163.679H352.613z"/>
</g>
</svg>
